Coordinates
version=1
nRows=13
nColumns=40
inDegrees=yes

Units are S.I. units (second, meters, Newtons, ...)
Angles are in degrees.

endheader
time	pelvis_tilt	pelvis_list	pelvis_rotation	pelvis_tx	pelvis_ty	pelvis_tz	hip_flexion_r	hip_adduction_r	hip_rotation_r	knee_angle_r	knee_angle_r_beta	ankle_angle_r	subtalar_angle_r	mtp_angle_r	hip_flexion_l	hip_adduction_l	hip_rotation_l	knee_angle_l	knee_angle_l_beta	ankle_angle_l	subtalar_angle_l	mtp_angle_l	lumbar_extension	lumbar_bending	lumbar_rotation	arm_flex_r	arm_add_r	arm_rot_r	elbow_flex_r	pro_sup_r	wrist_flex_r	wrist_dev_r	arm_flex_l	arm_add_l	arm_rot_l	elbow_flex_l	pro_sup_l	wrist_flex_l	wrist_dev_l
     29.71892857	     -7.09898786	     -5.38609778	     -4.76173021	      1.06498802	      0.92813128	      0.42714767	     24.50367066	      0.38692790	    -14.84418963	      9.22888419	      9.22888419	      1.25970112	      7.73268468	      6.07159760	      9.63444557	     -7.23813405	    -13.07047971	     18.13257607	     18.13257607	     15.37508415	    -11.66979202	     -1.74724123	    -10.62171417	      4.87454266	      1.83527400	      4.74716600	    -14.10845802	    -13.13181279	     32.05271772	     46.52339304	      0.00000000	      0.00000000	     16.62894891	    -16.42371257	      7.88226616	     51.86837112	     45.58477859	      0.00000000	      0.00000000
     29.73285714	     -7.23974465	     -5.25115968	     -4.68160827	      1.06582325	      0.92730647	      0.42881996	     23.93315004	      0.47833289	    -14.95841625	      9.43074070	      9.43074070	      1.19398999	      7.61751570	      6.03516756	      9.37928571	     -7.19444309	    -13.05810208	     18.17897018	     18.17897018	     15.54819806	    -11.71389171	     -1.80029177	    -10.14981781	      4.82890187	      1.93772409	      4.83490122	    -14.10721126	    -13.12645661	     32.11628535	     46.52086176	      0.00000000	      0.00000000	     16.53851284	    -16.37052881	      7.88522016	     51.86219782	     45.58413266	      0.00000000	      0.00000000
     29.74678571	     -6.87518046	     -4.95937408	     -4.61101481	      1.06728569	      0.92685418	      0.43052121	     23.34856860	      0.28187193	    -14.49842752	     10.77163952	     10.77163952	      1.29024293	      6.40301517	      3.86689260	      8.31026968	     -6.89792473	    -13.25275257	     17.84181603	     17.84181603	     16.12048238	    -11.25235962	     -1.50702490	    -10.27302931	      4.64971053	      1.85340907	      4.87395336	    -14.08001753	    -13.01606604	     33.07767258	     46.46695173	      0.00000000	      0.00000000	     15.94168094	    -16.09937492	      7.50787393	     51.70979423	     45.62306237	      0.00000000	      0.00000000
     29.76071429	     -6.69055434	     -4.78901674	     -4.47008389	      1.06882155	      0.92614127	      0.43240224	     22.41394534	      0.35813474	    -13.85402533	     10.89492659	     10.89492659	     -0.50158478	      4.90328912	     -2.49172567	      7.68506735	     -6.84639978	    -13.37811738	     18.04019643	     18.04019643	     17.18374340	    -10.54651229	     -0.12717986	    -10.16428178	      4.67632274	      1.96387004	      4.09456307	    -14.37566238	    -12.00910427	     35.68409261	     46.25746698	      0.00000000	      0.00000000	     15.38795167	    -15.53003862	      5.83968200	     51.75465666	     45.82629507	      0.00000000	      0.00000000
     29.77464286	     -6.50830869	     -4.63928524	     -4.34388803	      1.07026858	      0.92569715	      0.43436104	     21.89858226	      0.30044701	    -13.40316797	     11.88719674	     11.88719674	     -0.00855827	      4.10700409	     -2.98189727	      6.97654099	     -6.76427738	    -13.35559466	     17.97735938	     17.97735938	     17.51941347	    -10.40531189	     -0.02601378	    -10.06746330	      4.69351204	      1.99408917	      4.33454457	    -14.44681039	    -11.91057447	     36.05749601	     46.23404066	      0.00000000	      0.00000000	     14.89770947	    -15.47863948	      5.73603933	     51.53415172	     45.83644390	      0.00000000	      0.00000000
     29.78857143	     -6.30648356	     -4.52235011	     -4.18291475	      1.07172437	      0.92533058	      0.43647261	     21.45907973	      0.27246433	    -12.90402556	     12.90369310	     12.90369310	      0.58180578	      3.08126144	     -3.51637089	      6.29220020	     -6.75229365	    -13.40344948	     18.00203602	     18.00203602	     17.88701046	    -10.23763127	      0.18580845	     -9.98028687	      4.72092477	      1.97690862	      4.56887374	    -14.55176441	    -11.83554991	     36.65621237	     46.20332945	      0.00000000	      0.00000000	     14.38175257	    -15.41155195	      5.45850726	     51.33084681	     45.86107427	      0.00000000	      0.00000000
     29.80250000	     -6.18255082	     -4.55777321	     -3.98592996	      1.07300684	      0.92500867	      0.43882086	     21.08190780	      0.47488386	    -12.04225075	     13.67624041	     13.67624041	      1.02831475	      1.57592143	     -4.17600299	      5.88734686	     -7.00789754	    -13.39506539	     18.41915584	     18.41915584	     18.51556084	     -9.77549486	      1.02902432	     -9.88758649	      4.95388886	      1.98707841	      4.47763148	    -14.79339977	    -11.46929235	     38.22525438	     46.10745050	      0.00000000	      0.00000000	     13.64410205	    -15.10676134	      4.23916328	     51.24533411	     45.98096468	      0.00000000	      0.00000000
     29.81642857	     -6.04299788	     -4.58824110	     -3.79090380	      1.07441329	      0.92499270	      0.44117065	     20.59108796	      0.58551189	    -11.90664780	     14.16187572	     14.16187572	      1.64579106	      1.32803343	     -4.45921921	      5.39394358	     -7.20554590	    -13.22787241	     18.64983897	     18.64983897	     18.65194046	     -9.79128889	      1.03676607	     -9.75624376	      5.16000433	      2.24761936	      4.71369246	    -15.01829761	    -11.48817846	     38.42664995	     46.10193107	      0.00000000	      0.00000000	     12.96364227	    -14.95921660	      4.21847672	     51.00033877	     45.97504954	      0.00000000	      0.00000000
     29.83035714	     -5.93316643	     -4.64628753	     -3.55586700	      1.07546502	      0.92483605	      0.44384241	     20.60464757	      0.75263627	    -11.17497096	     15.37113742	     15.37113742	      2.37474829	     -0.29404501	     -4.61264138	      5.25619515	     -7.60532096	    -13.26392790	     19.48863544	     19.48863544	     19.09734163	     -9.43032334	      1.46989837	     -9.67619543	      5.39573313	      1.99145431	      4.98872113	    -15.19597975	    -11.22502813	     40.06784572	     46.01829726	      0.00000000	      0.00000000	     12.16960448	    -14.92078691	      3.08271455	     50.68433104	     46.07597762	      0.00000000	      0.00000000
     29.84428571	     -5.67653350	     -4.72178698	     -3.33338178	      1.07673481	      0.92526231	      0.44652268	     20.11557850	      0.90771048	    -11.07847897	     15.88854412	     15.88854412	      3.02170645	     -0.67739393	     -4.83012388	      4.89464862	     -7.95820507	    -13.11437691	     20.16349383	     20.16349383	     19.12440151	     -9.55737675	      1.47539017	     -9.73862498	      5.61162072	      2.20677967	      5.30159421	    -15.49688955	    -11.23368889	     40.47225201	     46.00461365	      0.00000000	      0.00000000	     11.43657539	    -14.79577553	      2.92595038	     50.40484582	     46.08175419	      0.00000000	      0.00000000
     29.85821429	     -5.66631817	     -4.85351417	     -3.01526147	      1.07756059	      0.92519542	      0.44944442	     20.09509613	      1.15842126	    -10.77219280	     16.67847654	     16.67847654	      3.69688618	     -1.81878963	     -4.78641098	      5.29300237	     -8.57404743	    -12.90487360	     21.70566402	     21.70566402	     19.27536115	     -9.51907596	      1.35657619	     -9.52247774	      5.90234055	      1.92466547	      5.67779107	    -15.60829271	    -11.08202685	     41.95966444	     45.93829069	      0.00000000	      0.00000000	     10.56565154	    -14.84757021	      2.10479836	     50.02727857	     46.14849895	      0.00000000	      0.00000000
     29.87214286	     -5.48263260	     -4.99496587	     -2.77057120	      1.07858117	      0.92562586	      0.45260030	     19.72947824	      1.49204795	    -10.36805371	     17.17871564	     17.17871564	      4.48401551	     -2.78908306	     -3.96792104	      5.49586000	     -9.25491233	    -12.89141693	     23.29172496	     23.29172496	     19.45799887	     -9.18103234	      1.39672908	     -9.61437820	      6.18379059	      1.93937847	      5.16933891	    -16.19719622	     -9.98567204	     45.50074735	     45.73688254	      0.00000000	      0.00000000	      9.52916800	    -14.27387553	     -0.73887687	     50.08393730	     46.41035908	      0.00000000	      0.00000000
     29.88607143	     -5.28170081	     -5.06771465	     -2.42429054	      1.07949378	      0.92608849	      0.45561960	     19.29008790	      1.64739643	    -10.55292871	     17.57423560	     17.57423560	      5.03173280	     -3.05088097	     -4.09358084	      5.92632836	     -9.81489722	    -12.38432416	     25.18290831	     25.18290831	     19.17072641	     -9.63625933	      1.00771873	     -9.61614262	      6.35304520	      1.90815068	      5.70613647	    -16.41763385	     -9.94430065	     46.18991935	     45.71199878	      0.00000000	      0.00000000	      8.76192828	    -14.32253992	     -0.93572232	     49.64126750	     46.41689042	      0.00000000	      0.00000000
